<svg xmlns="http://www.w3.org/2000/svg" viewBox="0 0 760 520" fill="none">
  <rect width="760" height="520" rx="28" fill="#0B172A"/>
  <rect x="74" y="94" width="148" height="72" rx="22" fill="#122947" stroke="#335A86" stroke-width="2"/>
  <rect x="304" y="94" width="148" height="72" rx="22" fill="#122947" stroke="#335A86" stroke-width="2"/>
  <rect x="534" y="94" width="148" height="72" rx="22" fill="#122947" stroke="#335A86" stroke-width="2"/>
  <rect x="189" y="274" width="148" height="72" rx="22" fill="#15375D" stroke="#39C6FF" stroke-width="2"/>
  <rect x="419" y="274" width="148" height="72" rx="22" fill="#15375D" stroke="#39C6FF" stroke-width="2"/>
  <path d="M222 130H304" stroke="#39C6FF" stroke-width="8" stroke-linecap="round"/>
  <path d="M452 130H534" stroke="#39C6FF" stroke-width="8" stroke-linecap="round"/>
  <path d="M378 166V274" stroke="#39C6FF" stroke-width="8" stroke-linecap="round"/>
  <path d="M493 346V408" stroke="#39C6FF" stroke-width="8" stroke-linecap="round"/>
  <path d="M263 346V408" stroke="#39C6FF" stroke-width="8" stroke-linecap="round"/>
  <rect x="189" y="408" width="378" height="58" rx="22" fill="#0E213B" stroke="#335A86" stroke-width="2"/>
  <g fill="#E6F0FF" font-family="Aptos, Arial, sans-serif" font-size="22" font-weight="700">
    <text x="120" y="136">nvm</text>
    <text x="339" y="136">npm</text>
    <text x="562" y="136">onboard</text>
    <text x="223" y="316">gateway</text>
    <text x="465" y="316">status</text>
    <text x="282" y="446">dashboard / tui / devices</text>
  </g>
</svg>

