<svg xmlns="http://www.w3.org/2000/svg" viewBox="0 0 980 620" fill="none">
  <rect width="980" height="620" rx="34" fill="#0B172A"/>
  <rect x="18" y="18" width="944" height="584" rx="24" fill="#10203A" stroke="#1F3857" stroke-width="2"/>
  <rect x="38" y="36" width="904" height="54" rx="16" fill="#0B1628"/>
  <circle cx="78" cy="63" r="8" fill="#FF6B6B"/>
  <circle cx="106" cy="63" r="8" fill="#FFC857"/>
  <circle cx="134" cy="63" r="8" fill="#39D98A"/>
  <rect x="184" y="49" width="210" height="28" rx="14" fill="#173153"/>
  <rect x="54" y="122" width="278" height="444" rx="20" fill="#0D1A2F"/>
  <rect x="364" y="122" width="540" height="198" rx="20" fill="#0C1627"/>
  <rect x="364" y="340" width="260" height="226" rx="20" fill="#0C1627"/>
  <rect x="644" y="340" width="260" height="226" rx="20" fill="#0C1627"/>
  <rect x="392" y="152" width="194" height="20" rx="10" fill="#284A74"/>
  <rect x="392" y="190" width="296" height="14" rx="7" fill="#395F8F"/>
  <rect x="392" y="219" width="268" height="14" rx="7" fill="#395F8F"/>
  <rect x="392" y="248" width="230" height="14" rx="7" fill="#395F8F"/>
  <rect x="392" y="277" width="194" height="14" rx="7" fill="#2B4D75"/>
  <rect x="80" y="156" width="226" height="16" rx="8" fill="#355E8C"/>
  <rect x="80" y="194" width="188" height="12" rx="6" fill="#29486C"/>
  <rect x="80" y="223" width="204" height="12" rx="6" fill="#29486C"/>
  <rect x="80" y="252" width="166" height="12" rx="6" fill="#29486C"/>
  <rect x="80" y="308" width="194" height="94" rx="20" fill="#102846"/>
  <rect x="80" y="422" width="194" height="94" rx="20" fill="#102846"/>
  <path d="M700 437C752 395 801 395 850 437" stroke="#39C6FF" stroke-width="12" stroke-linecap="round"/>
  <path d="M700 470C752 428 801 428 850 470" stroke="#2B7BFF" stroke-width="12" stroke-linecap="round"/>
  <rect x="396" y="377" width="196" height="20" rx="10" fill="#284A74"/>
  <rect x="396" y="418" width="168" height="12" rx="6" fill="#395F8F"/>
  <rect x="396" y="444" width="144" height="12" rx="6" fill="#395F8F"/>
  <rect x="396" y="470" width="178" height="12" rx="6" fill="#395F8F"/>
  <circle cx="756" cy="476" r="64" fill="#112845"/>
  <circle cx="756" cy="476" r="40" fill="#39C6FF"/>
  <path d="M734 476L748 490L780 458" stroke="#0B172A" stroke-width="10" stroke-linecap="round" stroke-linejoin="round"/>
</svg>

